<?xml version="1.0" encoding="UTF-8" standalone="no"?><!DOCTYPE svg PUBLIC "-//W3C//DTD SVG 1.1//EN" "http://www.w3.org/Graphics/SVG/1.1/DTD/svg11.dtd"><svg width="100%" height="100%" viewBox="0 0 4167 2084" version="1.1" xmlns="http://www.w3.org/2000/svg" xmlns:xlink="http://www.w3.org/1999/xlink" xml:space="preserve" xmlns:serif="http://www.serif.com/" style="fill-rule:evenodd;clip-rule:evenodd;stroke-linejoin:round;stroke-miterlimit:2;"><path d="M450,1119.79c-0,188.541 83.333,301.041 308.333,301.041l323.959,0c227.083,0 309.375,-112.5 309.375,-301.041l-0,-457.292l-214.584,0l0,442.708c0,87.5 -33.333,118.75 -113.541,118.75l-286.459,0c-79.166,0 -112.5,-31.25 -112.5,-116.666l0,-444.792l-214.583,0l-0,457.292Z" style="fill-rule:nonzero;"/><path d="M2720.83,1420.83l0,-727.083c0,-20.833 -9.375,-31.25 -29.166,-31.25l-338.542,0c-23.958,0 -36.458,10.417 -42.708,28.125l-187.5,541.667c-1.042,4.166 -3.125,6.25 -8.334,6.25l-18.75,-0c-6.25,-0 -9.375,-2.084 -10.416,-6.25l-186.459,-541.667c-6.25,-17.708 -19.791,-28.125 -43.75,-28.125l-342.708,0c-19.792,0 -29.167,10.417 -29.167,31.25l0,727.083l201.042,0l0,-569.791c0,-10.417 6.25,-16.667 16.667,-16.667l10.416,0c10.417,0 16.667,5.208 19.792,13.542l206.25,548.958c7.292,18.75 17.708,23.958 40.625,23.958l246.875,0c21.875,0 33.333,-5.208 40.625,-23.958l207.292,-548.958c3.125,-8.334 9.375,-13.542 18.75,-13.542l11.458,0c10.417,0 15.625,6.25 15.625,16.667l0,569.791l202.083,0Z" style="fill-rule:nonzero;"/><path d="M3715.62,890.625l0,-196.875c0,-20.833 -9.375,-31.25 -30.208,-31.25l-567.709,0c-226.041,0 -309.375,117.708 -309.375,301.042l0,156.25c0,183.333 83.334,301.041 309.375,301.041l586.459,0l-0,-196.875l-567.709,0c-84.375,0 -113.541,-32.291 -113.541,-122.916l-0,-127.084c-0,-92.708 30.208,-121.875 113.541,-121.875l362.5,0c6.25,0 9.375,3.125 9.375,10.417l0,102.083l8.334,0l198.958,-73.958Z" style="fill-rule:nonzero;"/></svg>